# xmcd CD database file
#
# Track frame offsets:
#	150
#	26745
#	53062
#	74559
#	95756
#	118099
#	144755
#	164497
#	189231
#	209945
#	231917
#	253802
#	282182
#	317245
#
# Disc length: 4601 seconds
#
# Revision: 0
# Processed by: cddbd v1.5.2PL0 Copyright (c) Steve Scherf et al.
# Submitted via: CDex 1.51
#
DISCID=db11f70e
DTITLE=Santana - All that I am
DYEAR=2005
DGENRE=Jazz
TTITLE0=(Da Le) Yaleo
TTITLE1=Love Of My Life
TTITLE2=Put Your Lights Out
TTITLE3=Africa Bamba
TTITLE4=Smooth
TTITLE5=Do You Like The Way
TTITLE6=Maria Maria
TTITLE7=Migra
TTITLE8=Corazon Espinado
TTITLE9=Wishing It Was
TTITLE10=El Farol
TTITLE11=Primavera
TTITLE12=The Calling
TTITLE13=Ouropa
EXTD=YEAR: 2005
EXTT0=
EXTT1=
EXTT2=
EXTT3=
EXTT4=
EXTT5=
EXTT6=
EXTT7=
EXTT8=
EXTT9=
EXTT10=
EXTT11=
EXTT12=
EXTT13=
PLAYORDER=
